/* XPM */
static char * accept_xpm[] = {
"32 32 5 1",
" 	c #C8C8C8C8C8C8",
".	c #000000000000",
"X	c #9999CCCCCCCC",
"o	c #CBCBFFFFFFFF",
"O	c #656598989898",
"                                ",
"                                ",
"                                ",
"                                ",
"                                ",
"                                ",
"                                ",
"                        ...     ",
"                       .XXX.    ",
"                      .XoooO.   ",
"                     .XoooooO.  ",
"                    .XooooooO.  ",
"                   .XoooooooO.  ",
"                  .XoooooooO.   ",
"     ...         .XoooooooO.    ",
"    .XXX.       .XoooooooO.     ",
"   .XoooX.     .XoooooooO.      ",
"  .XoooooX.   .XoooooooO.       ",
"  .XooooooX...XoooooooO.        ",
"  .XoooooooXXXoooooooO.         ",
"   .OoooooooooooooooO.          ",
"    .OoooooooooooooO.           ",
"     .OoooooooooooO.            ",
"      .OoooooooooO.             ",
"       .OoooooooO.              ",
"        .XoooooO.               ",
"         .OoooO.                ",
"          .OOO.                 ",
"           ...                  ",
"                                ",
"                                ",
"                                "};
