/* XPM */
static char * backward_xpm[] = {
"32 32 5 1",
" 	c #C8C8C8C8C8C8",
".	c #000000000000",
"X	c #CBCBFFFFFFFF",
"o	c #9999CCCCCCCC",
"O	c #656598989898",
"                                ",
"                                ",
"                                ",
"                                ",
"     ........            ..     ",
"     .Xooooo.           .o.     ",
"     .oXXXXO.          .oO.     ",
"     .oXXXXO.         .ooO.     ",
"     .oXXXXO.        .ooXO.     ",
"     .oXXXXO.       .ooXXO.     ",
"     .oXXXXO.      .ooXXXO.     ",
"     .oXXXXO.     .ooXXXXO.     ",
"     .oXXXXO.    .ooXXXXXO.     ",
"     .oXXXXO.   .ooXXXXXXO.     ",
"     .oXXXXO.  .ooXXXXXXXO.     ",
"     .oXXXXO. .oXXXXXXXXXO.     ",
"     .oXXXXO. .oOXXXXXXXXO.     ",
"     .oXXXXO.  .OOXXXXXXXO.     ",
"     .oXXXXO.   .OOXXXXXXO.     ",
"     .oXXXXO.    .OOXXXXXO.     ",
"     .oXXXXO.     .OOXXXXO.     ",
"     .oXXXXO.      .OOXXXO.     ",
"     .oXXXXO.       .OOXXO.     ",
"     .oXXXXO.        .OOXO.     ",
"     .oXXXXO.         .OOO.     ",
"     .oXXXXO.          .OO.     ",
"     .oOOOOO.           .O.     ",
"     ........            ..     ",
"                                ",
"                                ",
"                                ",
"                                "};
