/* XPM */
static char * cancel_xpm[] = {
"32 32 5 1",
" 	c #C8C8C8C8C8C8",
".	c #000000000000",
"X	c #9999CCCCCCCC",
"o	c #CBCBFFFFFFFF",
"O	c #656598989898",
"                                ",
"                                ",
"                                ",
"                                ",
"       ...            ...       ",
"      .XXX.          .XXX.      ",
"     .XoooX.        .XoooO.     ",
"    .XoooooX.      .XoooooO.    ",
"    .XooooooX.    .XooooooO.    ",
"    .XoooooooX.  .XoooooooO.    ",
"     .OoooooooX..XoooooooO.     ",
"      .OoooooooXXoooooooO.      ",
"       .OooooooooooooooO.       ",
"        .OooooooooooooO.        ",
"         .OooooooooooO.         ",
"          .XooooooooO.          ",
"          .XooooooooO.          ",
"         .XooooooooooO.         ",
"        .XooooooooooooO.        ",
"       .XooooooooooooooO.       ",
"      .XoooooooOOoooooooO.      ",
"     .XoooooooO..OoooooooO.     ",
"    .XoooooooO.  .OoooooooO.    ",
"    .XooooooO.    .OooooooO.    ",
"    .XoooooO.      .OoooooO.    ",
"     .OoooO.        .OoooO.     ",
"      .OOO.          .OOO.      ",
"       ...            ...       ",
"                                ",
"                                ",
"                                ",
"                                "};
