/* XPM */
static char * circle_xpm[] = {
"32 32 5 1",
" 	c #C8C8C8C8C8C8",
".	c #000000000000",
"X	c #9999CCCCCCCC",
"o	c #CBCBFFFFFFFF",
"O	c #656598989898",
"                                ",
"                                ",
"                                ",
"             ......             ",
"          ...XXXXXX...          ",
"         .XXXooooooXXX.         ",
"       ..XoooOOOOOOoooX..       ",
"      .XXooOO......OOooOO.      ",
"     .XoooO..    ....OoooO.     ",
"     .XooO. .....    .XooO.     ",
"    .XooO...         ..XooO.    ",
"    .XoO.          ..  .XoO.    ",
"   .XooO.       ...    .XooO.   ",
"   .XoO.      ..      . .XoO.   ",
"   .XoO.   ...      ..  .XoO.   ",
"   .XoO. ..        .  ...XoO.   ",
"   .XoO..         .  .  .XoO.   ",
"   .XoO.        ..  .   .XoO.   ",
"   .XoO.       .  ..    .XoO.   ",
"   .XooO.     .  .     .XooO.   ",
"    .XoO.   ..  .      .XoO.    ",
"    .XooO. .  ..      .XooO.    ",
"     .XooX.  .       .XooO.     ",
"     .XoooX..      ..XoooO.     ",
"      .OOooXX......XXooOO.      ",
"       ..OoooXXXXXXoooO..       ",
"         .OOOooooooOOO.         ",
"          ...OOOOOO...          ",
"             ......             ",
"                                ",
"                                ",
"                                "};
