/* XPM */
static char * close_xpm[] = {
"32 32 5 1",
" 	c #C8C8C8C8C8C8",
".	c #000000000000",
"X	c #CBCBFFFFFFFF",
"o	c #9999CCCCCCCC",
"O	c #656598989898",
"                                ",
"                                ",
"                                ",
"                                ",
"                                ",
"     ......................     ",
"    .Xooooooooooooooooooooo.    ",
"    .oXXXXXXXXXXXXXXXXXXXXO.    ",
"    .oXXXXXXXXXXXXXXXXXXXXO.    ",
"     .oXXXXXXXXXXXXXXXXXXO.     ",
"     .oXXXXXXXXXXXXXXXXXXO.     ",
"      .oXXXXXXXXXXXXXXXXO.      ",
"      .oXXXXXXXXXXXXXXXXO.      ",
"       .oXXXXXXXXXXXXXXO.       ",
"       .oXXXXXXXXXXXXXXO.       ",
"        .oXXXXXXXXXXXXO.        ",
"        .oXXXXXXXXXXXXO.        ",
"         .oXXXXXXXXXXO.         ",
"         .oXXXXXXXXXXO.         ",
"          .oXXXXXXXXO.          ",
"          .oXXXXXXXXO.          ",
"           .oXXXXXXO.           ",
"           .oXXXXXXO.           ",
"            .oXXXXO.            ",
"            .ooXXXO.            ",
"             .oXXO.             ",
"             .oOOO.             ",
"              ....              ",
"                                ",
"                                ",
"                                ",
"                                "};
