/* XPM */
static char * fit1_xpm[] = {
"32 32 5 1",
" 	c #CBCBFFFFFFFF",
".	c #9999CCCCCCCC",
"X	c #000000000000",
"o	c #C8C8C8C8C8C8",
"O	c #656598989898",
" ..........XooooooooX...........",
".        OXooooooooooXO        O",
".       OXooooooooooooXO       O",
".      OXooooooooooooooX.      O",
".       OXooooooooooooX.       O",
".        OXooooooooooX.        O",
".         OXooooooooX.         O",
".  O       OXooooooX.       O  O",
". OXO       OXooooX.       OXO O",
".OXoXO       OXooX.       OXoXOO",
".XoooXO       OXX.       OXoooXO",
"XoooooXO       ..       OXoooooX",
"oooooooXO              OXooooooo",
"ooooooooXO            OXoooooooo",
"oooooooooXO          OXooooooooo",
"ooooooooooX.        OXoooooooooo",
"ooooooooooX.        OXoooooooooo",
"oooooooooX.          OXooooooooo",
"ooooooooX.            OXoooooooo",
"oooooooX.              OXooooooo",
"XoooooX.       OO       OXoooooX",
".XoooX.       OXXO       OXoooXO",
".OXoX.       OXooXO       OXoX.O",
". OX.       OXooooXO       OX. O",
".  .       OXooooooXO       .  O",
".         OXooooooooXO         O",
".        OXooooooooooXO        O",
".       OXooooooooooooXO       O",
".      OXooooooooooooooX.      O",
".       OXooooooooooooX.       O",
".        OXooooooooooX.        O",
".OOOOOOOOOOXooooooooXOOOOOOOOOOO"};
