/* XPM */
static char * forward_xpm[] = {
"32 32 5 1",
" 	c #C8C8C8C8C8C8",
".	c #000000000000",
"X	c #9999CCCCCCCC",
"o	c #CBCBFFFFFFFF",
"O	c #656598989898",
"                                ",
"                                ",
"                                ",
"                                ",
"     ..            ........     ",
"     .X.           .oXXXXX.     ",
"     .XX.          .XooooO.     ",
"     .XXX.         .XooooO.     ",
"     .XoXX.        .XooooO.     ",
"     .XooXX.       .XooooO.     ",
"     .XoooXX.      .XooooO.     ",
"     .XooooXX.     .XooooO.     ",
"     .XoooooXX.    .XooooO.     ",
"     .XooooooXX.   .XooooO.     ",
"     .XoooooooXX.  .XooooO.     ",
"     .XooooooooXO. .XooooO.     ",
"     .XooooooooOO. .XooooO.     ",
"     .XoooooooOO.  .XooooO.     ",
"     .XooooooOO.   .XooooO.     ",
"     .XoooooOO.    .XooooO.     ",
"     .XooooOO.     .XooooO.     ",
"     .XoooOO.      .XooooO.     ",
"     .XooOO.       .XooooO.     ",
"     .XoOO.        .XooooO.     ",
"     .XXO.         .XooooO.     ",
"     .XO.          .XooooO.     ",
"     .X.           .XOOOOO.     ",
"     ..            ........     ",
"                                ",
"                                ",
"                                ",
"                                "};
