#define lglass_m_width 16
#define lglass_m_height 16
static unsigned char lglass_m_bits[] = {
  0xf8, 0x00, 0x04, 0x01, 0x02, 0x02, 0x01, 0x04, 0x01, 0x04, 0x01, 0x04,
  0x01, 0x04, 0x01, 0x04, 0x02, 0x06, 0x04, 0x0f, 0xf8, 0x1f, 0x00, 0x3e,
  0x00, 0x7c, 0x00, 0xf8, 0x00, 0x70, 0x00, 0x20, };
