#define lglass_s_width 16
#define lglass_s_height 16
static unsigned char lglass_s_bits[] = {
  0xf8, 0x00, 0x04, 0x01, 0x02, 0x02, 0x01, 0x04, 0x01, 0x04, 0x01, 0x04,
  0x01, 0x04, 0x01, 0x04, 0x02, 0x06, 0x04, 0x09, 0xf8, 0x11, 0x00, 0x22,
  0x00, 0x44, 0x00, 0x88, 0x00, 0x50, 0x00, 0x20, };
