/* XPM */
static char * pause_xpm[] = {
"32 32 5 1",
" 	c #C8C8C8C8C8C8",
".	c #000000000000",
"X	c #CBCBFFFFFFFF",
"o	c #9999CCCCCCCC",
"O	c #656598989898",
"                                ",
"                                ",
"                                ",
"                                ",
"     ........      ........     ",
"     .Xooooo.      .Xooooo.     ",
"     .oXXXXO.      .oXXXXO.     ",
"     .oXXXXO.      .oXXXXO.     ",
"     .oXXXXO.      .oXXXXO.     ",
"     .oXXXXO.      .oXXXXO.     ",
"     .oXXXXO.      .oXXXXO.     ",
"     .oXXXXO.      .oXXXXO.     ",
"     .oXXXXO.      .oXXXXO.     ",
"     .oXXXXO.      .oXXXXO.     ",
"     .oXXXXO.      .oXXXXO.     ",
"     .oXXXXO.      .oXXXXO.     ",
"     .oXXXXO.      .oXXXXO.     ",
"     .oXXXXO.      .oXXXXO.     ",
"     .oXXXXO.      .oXXXXO.     ",
"     .oXXXXO.      .oXXXXO.     ",
"     .oXXXXO.      .oXXXXO.     ",
"     .oXXXXO.      .oXXXXO.     ",
"     .oXXXXO.      .oXXXXO.     ",
"     .oXXXXO.      .oXXXXO.     ",
"     .oXXXXO.      .oXXXXO.     ",
"     .oXXXXO.      .oXXXXO.     ",
"     .oOOOOO.      .oOOOOO.     ",
"     ........      ........     ",
"                                ",
"                                ",
"                                ",
"                                "};
