/* XPM */
static char * play_xpm[] = {
"32 32 5 1",
" 	c #C8C8C8C8C8C8",
".	c #000000000000",
"X	c #CBCBFFFFFFFF",
"o	c #9999CCCCCCCC",
"O	c #656598989898",
"                                ",
"                                ",
"                                ",
"                                ",
"      ...                       ",
"     .Xoo..                     ",
"     .oXXoo..                   ",
"     .oXXXXoo..                 ",
"     .oXXXXXXoo..               ",
"     .oXXXXXXXXoo..             ",
"     .oXXXXXXXXXXoo..           ",
"     .oXXXXXXXXXXXXoo..         ",
"     .oXXXXXXXXXXXXXXoo..       ",
"     .oXXXXXXXXXXXXXXXXoo..     ",
"     .oXXXXXXXXXXXXXXXXXooo.    ",
"     .oXXXXXXXXXXXXXXXXXXXO.    ",
"     .oXXXXXXXXXXXXXXXXXXXO.    ",
"     .oXXXXXXXXXXXXXXXXXXOO.    ",
"     .oXXXXXXXXXXXXXXXXOO..     ",
"     .oXXXXXXXXXXXXXXOO..       ",
"     .oXXXXXXXXXXXXOO..         ",
"     .oXXXXXXXXXXOO..           ",
"     .oXXXXXXXXOO..             ",
"     .oXXXXXXOO..               ",
"     .oXXXXOO..                 ",
"     .oXXOO..                   ",
"     .oOO..                     ",
"      ...                       ",
"                                ",
"                                ",
"                                ",
"                                "};
