/* XPM */
static char * quit_xpm[] = {
"32 32 5 1",
" 	c #C8C8C8C8C8C8",
".	c #000000000000",
"X	c #9999CCCCCCCC",
"o	c #CBCBFFFFFFFF",
"O	c #656598989898",
"                                ",
"                                ",
"                                ",
"                                ",
"                                ",
"             .......            ",
"          ...XXXXXXX..          ",
"         .XXooO...XoOO.         ",
"        .Xooo..   .XooO.        ",
"       .XoooO.    .XoooO.       ",
"       .XooO.      .XooO.       ",
"      .XoooO.      .XoooO.      ",
"      .XooO.       .XoooO.      ",
"     .XoooO.       .XoooO.      ",
"     .XooO.        .XoooO.      ",
"     .XooO.        .XoooO.      ",
"     .XooO.  ...   .XoooO.      ",
"     .XooO. .XXX.  .XooO.       ",
"     .XooO..Xooo. .XoooO.       ",
"      .XooO..XooO..XooO.        ",
"      .XooO. .XooO.XooO.        ",
"       .XooO. .XoO.XoO.         ",
"        .XXoO..XoO.OO.          ",
"         ..XXX.XooO..           ",
"           .....Xoo.            ",
"               .XooO.           ",
"                .XooO...        ",
"                .XoooOO.        ",
"                 .OOOO.         ",
"                  ....          ",
"                                ",
"                                "};
