/* XPM */
static char * radial_xpm[] = {
"32 32 5 1",
" 	c #C8C8C8C8C8C8",
".	c #656598989898",
"X	c #000000000000",
"o	c #9999CCCCCCCC",
"O	c #CBCBFFFFFFFF",
"                                ",
"                                ",
"                .X              ",
"                .X              ",
"                .X              ",
"              Xo.X              ",
"              Xo.X              ",
"              Xo.X              ",
"              Xo.X              ",
"             XoOO.X             ",
"            XoO..O.X            ",
"           XoO.XXoO.X           ",
"  XXXXXXXXXoO.X  XoO.XXXXXXXXX  ",
" XOooooooooO.X    XoOoooooooo.X ",
" X.........O.X    XoO.........X ",
"  XXXXXXXXXoO.X  XoO.XXXXXXXXX  ",
"           XoO.XXoOOX           ",
"          XoooOooOOooX          ",
"         XoooXoOO.X.ooX         ",
"        XoooX Xo.X X.ooX        ",
"        XooX  Xo.X  X..X        ",
"        XXX   Xo.X   XXX        ",
"              Xo.X              ",
"              Xo.X              ",
"              Xo.X              ",
"              Xo.X              ",
"              X..X              ",
"              XXXX              ",
"               XX               ",
"                                ",
"                                ",
"                                "};
