/* XPM */
static char * reload_xpm[] = {
"32 32 5 1",
" 	c #C8C8C8C8C8C8",
".	c #000000000000",
"X	c #9999CCCCCCCC",
"o	c #656598989898",
"O	c #CBCBFFFFFFFF",
"                                ",
"                                ",
"                                ",
"                                ",
"                                ",
"                                ",
"    ..........    .....         ",
"     .XXXXXXX.    .XXXo.        ",
"      .XOOOOo.    .XOOoo.       ",
"      .XOOOOo.    .XOOOoo.      ",
"     .XXOOOOo.    .XOOOOoo.     ",
"     .XOOOOOo.     .XOOOOo.     ",
"    .XXOOOOoo.      .XOOOOo.    ",
"    .XOOOOo.o.      .XXOOOo.    ",
"    .XOOOo. ..       .XOOOo.    ",
"    .XOOOo.          .XOOOo.    ",
"    .XOOOo.          .XOOOo.    ",
"    .XOOOo.          .XOOOo.    ",
"    .XOOOoo.        .XXOOOo.    ",
"    .XXOOOo.        .XOOOoo.    ",
"     .XOOOoo..    ..XOOOOo.     ",
"     .XXOOOooo....XXOOOOoo.     ",
"      .XXOOOOXXXXXXOOOOoo.      ",
"       .XOOOOOOOOOOOOOoo.       ",
"        .XXOOOOOOOOOOoo.        ",
"         .XXXOOOOOOooo.         ",
"          ..Xooooooo..          ",
"            ........            ",
"                                ",
"                                ",
"                                ",
"                                "};
