/* XPM */
static char * rewind_xpm[] = {
"32 32 5 1",
" 	c #C8C8C8C8C8C8",
".	c #000000000000",
"X	c #9999CCCCCCCC",
"o	c #656598989898",
"O	c #CBCBFFFFFFFF",
"                                ",
"                                ",
"                                ",
"                                ",
"            ..            ..    ",
"           .X.           .X.    ",
"          .Xo.          .Xo.    ",
"         .XXo.         .XXo.    ",
"        .XXOo.        .XXOo.    ",
"       .XXOOo.       .XXOOo.    ",
"      .XXOOOo.      .XXOOOo.    ",
"     .XXOOOOo.     .XXOOOOo.    ",
"    .XXOOOOOo.    .XXOOOOOo.    ",
"   .XXOOOOOOo.   .XXOOOOOOo.    ",
"  .XXOOOOOOOo.  .XXOOOOOOOo.    ",
" .XOOOOOOOOOo. .XOOOOOOOOOo.    ",
" .XoOOOOOOOOo. .XoOOOOOOOOo.    ",
"  .ooOOOOOOOo.  .ooOOOOOOOo.    ",
"   .ooOOOOOOo.   .ooOOOOOOo.    ",
"    .ooOOOOOo.    .ooOOOOOo.    ",
"     .ooOOOOo.     .ooOOOOo.    ",
"      .ooOOOo.      .ooOOOo.    ",
"       .ooOOo.       .ooOOo.    ",
"        .ooOo.        .ooOo.    ",
"         .ooo.         .ooo.    ",
"          .oo.          .oo.    ",
"           .o.           .o.    ",
"            ..            ..    ",
"                                ",
"                                ",
"                                ",
"                                "};
