#define rot_m_width 16
#define rot_m_height 16
static unsigned char rot_m_bits[] = {
  0x00, 0x00, 0x00, 0x00, 0xe0, 0x07, 0xf8, 0x1f, 0x18, 0x18, 0x0c, 0x30,
  0x0c, 0x30, 0x0c, 0x30, 0x0c, 0xfc, 0x0c, 0x78, 0x0c, 0x30, 0x18, 0x00,
  0xf8, 0x00, 0xe0, 0x00, 0x00, 0x00, 0x00, 0x00, };
