/* XPM */
static char * squiggle_xpm[] = {
"32 32 5 1",
" 	c #C8C8C8C8C8C8",
".	c #656598989898",
"X	c #000000000000",
"o	c #9999CCCCCCCC",
"O	c #CBCBFFFFFFFF",
"                                ",
"                                ",
"                .X              ",
"                .X              ",
"                .X              ",
"              Xo.X              ",
"              Xo.X              ",
"              Xo.X              ",
"              Xo.X              ",
"            XXoOO.XX            ",
"    XXX    XooO..O..X    XXX    ",
"   XoooX   XoO.XXoO.X   XoooX   ",
"  XoOXO.XXXoO.X  XoO.XXXoOXO.X  ",
"  XoX XOoooO.X    XoOoooOX X.X  ",
"  XoX XO...O.X    XoO...OX X.X  ",
"  XoOXO.XXXoO.X  XoO.XXX.OXO.X  ",
"   X...X   XoO.XXoO.X   X...X   ",
"    XXX    XooOooO..X    XXX    ",
"            XXoOO.XX            ",
"              Xo.X              ",
"              Xo.X              ",
"              Xo.X              ",
"              Xo.X              ",
"             XoOO.X             ",
"            XoOXXO.X            ",
"            XoX  X.X            ",
"            XoOXXO.X            ",
"             X....X             ",
"              XXXX              ",
"                                ",
"                                ",
"                                "};
